<?xml version="1.0" encoding="UTF-8"?>
<svg xmlns="http://www.w3.org/2000/svg" xmlns:xlink="http://www.w3.org/1999/xlink" width="3500" height="2000" viewBox="0 0 3500 2000">
<defs>
<radialGradient id="radial-pattern-0" gradientUnits="userSpaceOnUse" cx="0" cy="0" fx="0" fy="0" r="1536.16" gradientTransform="matrix(1.2829, 0, 0, 0.7171, 1750, 1000)">
<stop offset="0" stop-color="rgb(30.873108%, 30.873108%, 30.873108%)" stop-opacity="1"/>
<stop offset="0.03125" stop-color="rgb(30.622864%, 30.622864%, 30.622864%)" stop-opacity="1"/>
<stop offset="0.0585938" stop-color="rgb(30.310059%, 30.310059%, 30.310059%)" stop-opacity="1"/>
<stop offset="0.0859375" stop-color="rgb(29.949951%, 29.949951%, 29.949951%)" stop-opacity="1"/>
<stop offset="0.113281" stop-color="rgb(29.673767%, 29.673767%, 29.673767%)" stop-opacity="1"/>
<stop offset="0.125" stop-color="rgb(29.496765%, 29.496765%, 29.496765%)" stop-opacity="1"/>
<stop offset="0.136719" stop-color="rgb(29.219055%, 29.219055%, 29.219055%)" stop-opacity="1"/>
<stop offset="0.160156" stop-color="rgb(28.935242%, 28.935242%, 28.935242%)" stop-opacity="1"/>
<stop offset="0.171875" stop-color="rgb(28.736877%, 28.736877%, 28.736877%)" stop-opacity="1"/>
<stop offset="0.183594" stop-color="rgb(28.535461%, 28.535461%, 28.535461%)" stop-opacity="1"/>
<stop offset="0.195312" stop-color="rgb(28.327942%, 28.327942%, 28.327942%)" stop-opacity="1"/>
<stop offset="0.207031" stop-color="rgb(28.117371%, 28.117371%, 28.117371%)" stop-opacity="1"/>
<stop offset="0.21875" stop-color="rgb(27.903748%, 27.903748%, 27.903748%)" stop-opacity="1"/>
<stop offset="0.230469" stop-color="rgb(27.684021%, 27.684021%, 27.684021%)" stop-opacity="1"/>
<stop offset="0.242188" stop-color="rgb(27.461243%, 27.461243%, 27.461243%)" stop-opacity="1"/>
<stop offset="0.253906" stop-color="rgb(27.159119%, 27.159119%, 27.159119%)" stop-opacity="1"/>
<stop offset="0.273438" stop-color="rgb(26.890564%, 26.890564%, 26.890564%)" stop-opacity="1"/>
<stop offset="0.28125" stop-color="rgb(26.733398%, 26.733398%, 26.733398%)" stop-opacity="1"/>
<stop offset="0.289062" stop-color="rgb(26.576233%, 26.576233%, 26.576233%)" stop-opacity="1"/>
<stop offset="0.296875" stop-color="rgb(26.416016%, 26.416016%, 26.416016%)" stop-opacity="1"/>
<stop offset="0.304688" stop-color="rgb(26.255798%, 26.255798%, 26.255798%)" stop-opacity="1"/>
<stop offset="0.3125" stop-color="rgb(26.092529%, 26.092529%, 26.092529%)" stop-opacity="1"/>
<stop offset="0.320312" stop-color="rgb(25.92926%, 25.92926%, 25.92926%)" stop-opacity="1"/>
<stop offset="0.328125" stop-color="rgb(25.762939%, 25.762939%, 25.762939%)" stop-opacity="1"/>
<stop offset="0.335938" stop-color="rgb(25.596619%, 25.596619%, 25.596619%)" stop-opacity="1"/>
<stop offset="0.34375" stop-color="rgb(25.428772%, 25.428772%, 25.428772%)" stop-opacity="1"/>
<stop offset="0.351562" stop-color="rgb(25.259399%, 25.259399%, 25.259399%)" stop-opacity="1"/>
<stop offset="0.359375" stop-color="rgb(25.090027%, 25.090027%, 25.090027%)" stop-opacity="1"/>
<stop offset="0.367188" stop-color="rgb(24.917603%, 24.917603%, 24.917603%)" stop-opacity="1"/>
<stop offset="0.375" stop-color="rgb(24.745178%, 24.745178%, 24.745178%)" stop-opacity="1"/>
<stop offset="0.382812" stop-color="rgb(24.482727%, 24.482727%, 24.482727%)" stop-opacity="1"/>
<stop offset="0.398438" stop-color="rgb(24.128723%, 24.128723%, 24.128723%)" stop-opacity="1"/>
<stop offset="0.414062" stop-color="rgb(23.770142%, 23.770142%, 23.770142%)" stop-opacity="1"/>
<stop offset="0.429688" stop-color="rgb(23.406982%, 23.406982%, 23.406982%)" stop-opacity="1"/>
<stop offset="0.445312" stop-color="rgb(23.039246%, 23.039246%, 23.039246%)" stop-opacity="1"/>
<stop offset="0.460938" stop-color="rgb(22.666931%, 22.666931%, 22.666931%)" stop-opacity="1"/>
<stop offset="0.476562" stop-color="rgb(22.291565%, 22.291565%, 22.291565%)" stop-opacity="1"/>
<stop offset="0.492188" stop-color="rgb(21.910095%, 21.910095%, 21.910095%)" stop-opacity="1"/>
<stop offset="0.507812" stop-color="rgb(21.574402%, 21.574402%, 21.574402%)" stop-opacity="1"/>
<stop offset="0.519531" stop-color="rgb(21.282959%, 21.282959%, 21.282959%)" stop-opacity="1"/>
<stop offset="0.53125" stop-color="rgb(20.988464%, 20.988464%, 20.988464%)" stop-opacity="1"/>
<stop offset="0.542969" stop-color="rgb(20.69397%, 20.69397%, 20.69397%)" stop-opacity="1"/>
<stop offset="0.554688" stop-color="rgb(20.396423%, 20.396423%, 20.396423%)" stop-opacity="1"/>
<stop offset="0.566406" stop-color="rgb(20.095825%, 20.095825%, 20.095825%)" stop-opacity="1"/>
<stop offset="0.578125" stop-color="rgb(19.793701%, 19.793701%, 19.793701%)" stop-opacity="1"/>
<stop offset="0.589844" stop-color="rgb(19.490051%, 19.490051%, 19.490051%)" stop-opacity="1"/>
<stop offset="0.601562" stop-color="rgb(19.18335%, 19.18335%, 19.18335%)" stop-opacity="1"/>
<stop offset="0.613281" stop-color="rgb(18.873596%, 18.873596%, 18.873596%)" stop-opacity="1"/>
<stop offset="0.625" stop-color="rgb(18.563843%, 18.563843%, 18.563843%)" stop-opacity="1"/>
<stop offset="0.636719" stop-color="rgb(18.302917%, 18.302917%, 18.302917%)" stop-opacity="1"/>
<stop offset="0.644531" stop-color="rgb(18.093872%, 18.093872%, 18.093872%)" stop-opacity="1"/>
<stop offset="0.652344" stop-color="rgb(17.883301%, 17.883301%, 17.883301%)" stop-opacity="1"/>
<stop offset="0.660156" stop-color="rgb(17.672729%, 17.672729%, 17.672729%)" stop-opacity="1"/>
<stop offset="0.667969" stop-color="rgb(17.460632%, 17.460632%, 17.460632%)" stop-opacity="1"/>
<stop offset="0.675781" stop-color="rgb(17.248535%, 17.248535%, 17.248535%)" stop-opacity="1"/>
<stop offset="0.683594" stop-color="rgb(17.034912%, 17.034912%, 17.034912%)" stop-opacity="1"/>
<stop offset="0.691406" stop-color="rgb(16.819763%, 16.819763%, 16.819763%)" stop-opacity="1"/>
<stop offset="0.699219" stop-color="rgb(16.604614%, 16.604614%, 16.604614%)" stop-opacity="1"/>
<stop offset="0.707031" stop-color="rgb(16.387939%, 16.387939%, 16.387939%)" stop-opacity="1"/>
<stop offset="0.714844" stop-color="rgb(16.171265%, 16.171265%, 16.171265%)" stop-opacity="1"/>
<stop offset="0.722656" stop-color="rgb(15.953064%, 15.953064%, 15.953064%)" stop-opacity="1"/>
<stop offset="0.730469" stop-color="rgb(15.734863%, 15.734863%, 15.734863%)" stop-opacity="1"/>
<stop offset="0.738281" stop-color="rgb(15.515137%, 15.515137%, 15.515137%)" stop-opacity="1"/>
<stop offset="0.746094" stop-color="rgb(15.293884%, 15.293884%, 15.293884%)" stop-opacity="1"/>
<stop offset="0.753906" stop-color="rgb(15.0177%, 15.0177%, 15.0177%)" stop-opacity="1"/>
<stop offset="0.765625" stop-color="rgb(14.683533%, 14.683533%, 14.683533%)" stop-opacity="1"/>
<stop offset="0.777344" stop-color="rgb(14.349365%, 14.349365%, 14.349365%)" stop-opacity="1"/>
<stop offset="0.789062" stop-color="rgb(14.012146%, 14.012146%, 14.012146%)" stop-opacity="1"/>
<stop offset="0.800781" stop-color="rgb(13.671875%, 13.671875%, 13.671875%)" stop-opacity="1"/>
<stop offset="0.8125" stop-color="rgb(13.331604%, 13.331604%, 13.331604%)" stop-opacity="1"/>
<stop offset="0.824219" stop-color="rgb(13.047791%, 13.047791%, 13.047791%)" stop-opacity="1"/>
<stop offset="0.832031" stop-color="rgb(12.817383%, 12.817383%, 12.817383%)" stop-opacity="1"/>
<stop offset="0.839844" stop-color="rgb(12.588501%, 12.588501%, 12.588501%)" stop-opacity="1"/>
<stop offset="0.847656" stop-color="rgb(12.358093%, 12.358093%, 12.358093%)" stop-opacity="1"/>
<stop offset="0.855469" stop-color="rgb(12.12616%, 12.12616%, 12.12616%)" stop-opacity="1"/>
<stop offset="0.863281" stop-color="rgb(11.894226%, 11.894226%, 11.894226%)" stop-opacity="1"/>
<stop offset="0.871094" stop-color="rgb(11.662292%, 11.662292%, 11.662292%)" stop-opacity="1"/>
<stop offset="0.878906" stop-color="rgb(11.37085%, 11.37085%, 11.37085%)" stop-opacity="1"/>
<stop offset="0.890625" stop-color="rgb(11.018372%, 11.018372%, 11.018372%)" stop-opacity="1"/>
<stop offset="0.902344" stop-color="rgb(10.664368%, 10.664368%, 10.664368%)" stop-opacity="1"/>
<stop offset="0.914062" stop-color="rgb(10.368347%, 10.368347%, 10.368347%)" stop-opacity="1"/>
<stop offset="0.921875" stop-color="rgb(10.131836%, 10.131836%, 10.131836%)" stop-opacity="1"/>
<stop offset="0.929688" stop-color="rgb(9.893799%, 9.893799%, 9.893799%)" stop-opacity="1"/>
<stop offset="0.9375" stop-color="rgb(9.654236%, 9.654236%, 9.654236%)" stop-opacity="1"/>
<stop offset="0.945312" stop-color="rgb(9.355164%, 9.355164%, 9.355164%)" stop-opacity="1"/>
<stop offset="0.957031" stop-color="rgb(9.054565%, 9.054565%, 9.054565%)" stop-opacity="1"/>
<stop offset="0.964844" stop-color="rgb(8.813477%, 8.813477%, 8.813477%)" stop-opacity="1"/>
<stop offset="0.972656" stop-color="rgb(8.511353%, 8.511353%, 8.511353%)" stop-opacity="1"/>
<stop offset="0.984375" stop-color="rgb(8.207703%, 8.207703%, 8.207703%)" stop-opacity="1"/>
<stop offset="0.992188" stop-color="rgb(7.963562%, 7.963562%, 7.963562%)" stop-opacity="1"/>
<stop offset="1" stop-color="rgb(7.843018%, 7.843018%, 7.843018%)" stop-opacity="1"/>
</radialGradient>
</defs>
<rect x="-350" y="-200" width="4200" height="2400" fill="url(#radial-pattern-0)"/>
<path fill-rule="nonzero" fill="rgb(0%, 0%, 0%)" fill-opacity="1" d="M -2238.128906 2181.859375 L -2241.820312 2178.171875 L 90.546875 -154.210938 L 94.238281 -150.519531 L -2238.128906 2181.859375 "/>
<path fill-rule="nonzero" fill="rgb(0%, 0%, 0%)" fill-opacity="1" d="M -2196.539062 2181.859375 L -2200.230469 2178.171875 L 132.140625 -154.210938 L 135.832031 -150.519531 L -2196.539062 2181.859375 "/>
<path fill-rule="nonzero" fill="rgb(0%, 0%, 0%)" fill-opacity="1" d="M -2154.949219 2181.859375 L -2158.640625 2178.171875 L 173.734375 -154.210938 L 177.425781 -150.519531 L -2154.949219 2181.859375 "/>
<path fill-rule="nonzero" fill="rgb(0%, 0%, 0%)" fill-opacity="1" d="M -2113.359375 2181.859375 L -2117.050781 2178.171875 L 215.324219 -154.210938 L 219.015625 -150.519531 L -2113.359375 2181.859375 "/>
<path fill-rule="nonzero" fill="rgb(0%, 0%, 0%)" fill-opacity="1" d="M -2071.761719 2181.859375 L -2075.460938 2178.171875 L 256.917969 -154.210938 L 260.609375 -150.519531 L -2071.761719 2181.859375 "/>
<path fill-rule="nonzero" fill="rgb(0%, 0%, 0%)" fill-opacity="1" d="M -2030.171875 2181.859375 L -2033.859375 2178.171875 L 298.511719 -154.210938 L 302.203125 -150.519531 L -2030.171875 2181.859375 "/>
<path fill-rule="nonzero" fill="rgb(0%, 0%, 0%)" fill-opacity="1" d="M -1988.578125 2181.859375 L -1992.269531 2178.171875 L 340.101562 -154.210938 L 343.792969 -150.519531 L -1988.578125 2181.859375 "/>
<path fill-rule="nonzero" fill="rgb(0%, 0%, 0%)" fill-opacity="1" d="M -1946.988281 2181.859375 L -1950.679688 2178.171875 L 381.695312 -154.210938 L 385.386719 -150.519531 L -1946.988281 2181.859375 "/>
<path fill-rule="nonzero" fill="rgb(0%, 0%, 0%)" fill-opacity="1" d="M -1905.390625 2181.859375 L -1909.089844 2178.171875 L 423.285156 -154.210938 L 426.980469 -150.519531 L -1905.390625 2181.859375 "/>
<path fill-rule="nonzero" fill="rgb(0%, 0%, 0%)" fill-opacity="1" d="M -1863.800781 2181.859375 L -1867.488281 2178.171875 L 464.878906 -154.210938 L 468.570312 -150.519531 L -1863.800781 2181.859375 "/>
<path fill-rule="nonzero" fill="rgb(0%, 0%, 0%)" fill-opacity="1" d="M -1822.210938 2181.859375 L -1825.898438 2178.171875 L 506.472656 -154.210938 L 510.164062 -150.519531 L -1822.210938 2181.859375 "/>
<path fill-rule="nonzero" fill="rgb(0%, 0%, 0%)" fill-opacity="1" d="M -1780.621094 2181.859375 L -1784.308594 2178.171875 L 548.0625 -154.210938 L 551.757812 -150.519531 L -1780.621094 2181.859375 "/>
<path fill-rule="nonzero" fill="rgb(0%, 0%, 0%)" fill-opacity="1" d="M -1739.019531 2181.859375 L -1742.71875 2178.171875 L 589.65625 -154.210938 L 593.347656 -150.519531 L -1739.019531 2181.859375 "/>
<path fill-rule="nonzero" fill="rgb(0%, 0%, 0%)" fill-opacity="1" d="M -1697.429688 2181.859375 L -1701.121094 2178.171875 L 631.25 -154.210938 L 634.941406 -150.519531 L -1697.429688 2181.859375 "/>
<path fill-rule="nonzero" fill="rgb(0%, 0%, 0%)" fill-opacity="1" d="M -1655.839844 2181.859375 L -1659.53125 2178.171875 L 672.839844 -154.210938 L 676.53125 -150.519531 L -1655.839844 2181.859375 "/>
<path fill-rule="nonzero" fill="rgb(0%, 0%, 0%)" fill-opacity="1" d="M -1614.25 2181.859375 L -1617.941406 2178.171875 L 714.433594 -154.210938 L 718.125 -150.519531 L -1614.25 2181.859375 "/>
<path fill-rule="nonzero" fill="rgb(0%, 0%, 0%)" fill-opacity="1" d="M -1572.648438 2181.859375 L -1576.351562 2178.171875 L 756.027344 -154.210938 L 759.71875 -150.519531 L -1572.648438 2181.859375 "/>
<path fill-rule="nonzero" fill="rgb(0%, 0%, 0%)" fill-opacity="1" d="M -1531.058594 2181.859375 L -1534.75 2178.171875 L 797.617188 -154.210938 L 801.3125 -150.519531 L -1531.058594 2181.859375 "/>
<path fill-rule="nonzero" fill="rgb(0%, 0%, 0%)" fill-opacity="1" d="M -1489.46875 2181.859375 L -1493.160156 2178.171875 L 839.210938 -154.210938 L 842.902344 -150.519531 L -1489.46875 2181.859375 "/>
<path fill-rule="nonzero" fill="rgb(0%, 0%, 0%)" fill-opacity="1" d="M -1447.878906 2181.859375 L -1451.570312 2178.171875 L 880.804688 -154.210938 L 884.496094 -150.519531 L -1447.878906 2181.859375 "/>
<path fill-rule="nonzero" fill="rgb(0%, 0%, 0%)" fill-opacity="1" d="M -1406.289062 2181.859375 L -1409.980469 2178.171875 L 922.394531 -154.210938 L 926.089844 -150.519531 L -1406.289062 2181.859375 "/>
<path fill-rule="nonzero" fill="rgb(0%, 0%, 0%)" fill-opacity="1" d="M -1364.691406 2181.859375 L -1368.378906 2178.171875 L 963.988281 -154.210938 L 967.679688 -150.519531 L -1364.691406 2181.859375 "/>
<path fill-rule="nonzero" fill="rgb(0%, 0%, 0%)" fill-opacity="1" d="M -1323.101562 2181.859375 L -1326.789062 2178.171875 L 1005.578125 -154.210938 L 1009.269531 -150.519531 L -1323.101562 2181.859375 "/>
<path fill-rule="nonzero" fill="rgb(0%, 0%, 0%)" fill-opacity="1" d="M -1281.511719 2181.859375 L -1285.199219 2178.171875 L 1047.171875 -154.210938 L 1050.859375 -150.519531 L -1281.511719 2181.859375 "/>
<path fill-rule="nonzero" fill="rgb(0%, 0%, 0%)" fill-opacity="1" d="M -1239.921875 2181.859375 L -1243.609375 2178.171875 L 1088.769531 -154.210938 L 1092.460938 -150.519531 L -1239.921875 2181.859375 "/>
<path fill-rule="nonzero" fill="rgb(0%, 0%, 0%)" fill-opacity="1" d="M -1198.320312 2181.859375 L -1202.019531 2178.171875 L 1130.359375 -154.210938 L 1134.050781 -150.519531 L -1198.320312 2181.859375 "/>
<path fill-rule="nonzero" fill="rgb(0%, 0%, 0%)" fill-opacity="1" d="M -1156.730469 2181.859375 L -1160.421875 2178.171875 L 1171.949219 -154.210938 L 1175.640625 -150.519531 L -1156.730469 2181.859375 "/>
<path fill-rule="nonzero" fill="rgb(0%, 0%, 0%)" fill-opacity="1" d="M -1115.140625 2181.859375 L -1118.828125 2178.171875 L 1213.539062 -154.210938 L 1217.230469 -150.519531 L -1115.140625 2181.859375 "/>
<path fill-rule="nonzero" fill="rgb(0%, 0%, 0%)" fill-opacity="1" d="M -1073.550781 2181.859375 L -1077.238281 2178.171875 L 1255.128906 -154.210938 L 1258.828125 -150.519531 L -1073.550781 2181.859375 "/>
<path fill-rule="nonzero" fill="rgb(0%, 0%, 0%)" fill-opacity="1" d="M -1031.949219 2181.859375 L -1035.648438 2178.171875 L 1296.730469 -154.210938 L 1300.421875 -150.519531 L -1031.949219 2181.859375 "/>
<path fill-rule="nonzero" fill="rgb(0%, 0%, 0%)" fill-opacity="1" d="M -990.359375 2181.859375 L -994.054688 2178.171875 L 1338.320312 -154.210938 L 1342.011719 -150.519531 L -990.359375 2181.859375 "/>
<path fill-rule="nonzero" fill="rgb(0%, 0%, 0%)" fill-opacity="1" d="M -948.769531 2181.859375 L -952.460938 2178.171875 L 1379.910156 -154.210938 L 1383.601562 -150.519531 L -948.769531 2181.859375 "/>
<path fill-rule="nonzero" fill="rgb(0%, 0%, 0%)" fill-opacity="1" d="M -907.175781 2181.859375 L -910.867188 2178.171875 L 1421.5 -154.210938 L 1425.199219 -150.519531 L -907.175781 2181.859375 "/>
<path fill-rule="nonzero" fill="rgb(0%, 0%, 0%)" fill-opacity="1" d="M -865.585938 2181.859375 L -869.277344 2178.171875 L 1463.101562 -154.210938 L 1466.789062 -150.519531 L -865.585938 2181.859375 "/>
<path fill-rule="nonzero" fill="rgb(0%, 0%, 0%)" fill-opacity="1" d="M -823.992188 2181.859375 L -827.683594 2178.171875 L 1504.691406 -154.210938 L 1508.378906 -150.519531 L -823.992188 2181.859375 "/>
<path fill-rule="nonzero" fill="rgb(0%, 0%, 0%)" fill-opacity="1" d="M -782.398438 2181.859375 L -786.089844 2178.171875 L 1546.28125 -154.210938 L 1549.96875 -150.519531 L -782.398438 2181.859375 "/>
<path fill-rule="nonzero" fill="rgb(0%, 0%, 0%)" fill-opacity="1" d="M -740.808594 2181.859375 L -744.5 2178.171875 L 1587.871094 -154.210938 L 1591.570312 -150.519531 L -740.808594 2181.859375 "/>
<path fill-rule="nonzero" fill="rgb(0%, 0%, 0%)" fill-opacity="1" d="M -699.214844 2181.859375 L -702.90625 2178.171875 L 1629.46875 -154.210938 L 1633.160156 -150.519531 L -699.214844 2181.859375 "/>
<path fill-rule="nonzero" fill="rgb(0%, 0%, 0%)" fill-opacity="1" d="M -657.621094 2181.859375 L -661.3125 2178.171875 L 1671.058594 -154.210938 L 1674.75 -150.519531 L -657.621094 2181.859375 "/>
<path fill-rule="nonzero" fill="rgb(0%, 0%, 0%)" fill-opacity="1" d="M -616.03125 2181.859375 L -619.722656 2178.171875 L 1712.648438 -154.210938 L 1716.339844 -150.519531 L -616.03125 2181.859375 "/>
<path fill-rule="nonzero" fill="rgb(0%, 0%, 0%)" fill-opacity="1" d="M -574.4375 2181.859375 L -578.128906 2178.171875 L 1754.238281 -154.210938 L 1757.941406 -150.519531 L -574.4375 2181.859375 "/>
<path fill-rule="nonzero" fill="rgb(0%, 0%, 0%)" fill-opacity="1" d="M -532.84375 2181.859375 L -536.535156 2178.171875 L 1795.839844 -154.210938 L 1799.53125 -150.519531 L -532.84375 2181.859375 "/>
<path fill-rule="nonzero" fill="rgb(0%, 0%, 0%)" fill-opacity="1" d="M -491.253906 2181.859375 L -494.945312 2178.171875 L 1837.429688 -154.210938 L 1841.121094 -150.519531 L -491.253906 2181.859375 "/>
<path fill-rule="nonzero" fill="rgb(0%, 0%, 0%)" fill-opacity="1" d="M -449.660156 2181.859375 L -453.351562 2178.171875 L 1879.019531 -154.210938 L 1882.710938 -150.519531 L -449.660156 2181.859375 "/>
<path fill-rule="nonzero" fill="rgb(0%, 0%, 0%)" fill-opacity="1" d="M -408.066406 2181.859375 L -411.761719 2178.171875 L 1920.609375 -154.210938 L 1924.300781 -150.519531 L -408.066406 2181.859375 "/>
<path fill-rule="nonzero" fill="rgb(0%, 0%, 0%)" fill-opacity="1" d="M -366.476562 2181.859375 L -370.167969 2178.171875 L 1962.210938 -154.210938 L 1965.898438 -150.519531 L -366.476562 2181.859375 "/>
<path fill-rule="nonzero" fill="rgb(0%, 0%, 0%)" fill-opacity="1" d="M -324.882812 2181.859375 L -328.574219 2178.171875 L 2003.800781 -154.210938 L 2007.488281 -150.519531 L -324.882812 2181.859375 "/>
<path fill-rule="nonzero" fill="rgb(0%, 0%, 0%)" fill-opacity="1" d="M -283.289062 2181.859375 L -286.984375 2178.171875 L 2045.390625 -154.210938 L 2049.078125 -150.519531 L -283.289062 2181.859375 "/>
<path fill-rule="nonzero" fill="rgb(0%, 0%, 0%)" fill-opacity="1" d="M -241.699219 2181.859375 L -245.390625 2178.171875 L 2086.980469 -154.210938 L 2090.671875 -150.519531 L -241.699219 2181.859375 "/>
<path fill-rule="nonzero" fill="rgb(0%, 0%, 0%)" fill-opacity="1" d="M -200.105469 2181.859375 L -203.796875 2178.171875 L 2128.570312 -154.210938 L 2132.269531 -150.519531 L -200.105469 2181.859375 "/>
<path fill-rule="nonzero" fill="rgb(0%, 0%, 0%)" fill-opacity="1" d="M -158.515625 2181.859375 L -162.207031 2178.171875 L 2170.171875 -154.210938 L 2173.859375 -150.519531 L -158.515625 2181.859375 "/>
<path fill-rule="nonzero" fill="rgb(0%, 0%, 0%)" fill-opacity="1" d="M -116.921875 2181.859375 L -120.613281 2178.171875 L 2211.761719 -154.210938 L 2215.449219 -150.519531 L -116.921875 2181.859375 "/>
<path fill-rule="nonzero" fill="rgb(0%, 0%, 0%)" fill-opacity="1" d="M -75.328125 2181.859375 L -79.019531 2178.171875 L 2253.351562 -154.210938 L 2257.039062 -150.519531 L -75.328125 2181.859375 "/>
<path fill-rule="nonzero" fill="rgb(0%, 0%, 0%)" fill-opacity="1" d="M -33.738281 2181.859375 L -37.429688 2178.171875 L 2294.941406 -154.210938 L 2298.640625 -150.519531 L -33.738281 2181.859375 "/>
<path fill-rule="nonzero" fill="rgb(0%, 0%, 0%)" fill-opacity="1" d="M 7.855469 2181.859375 L 4.164062 2178.171875 L 2336.539062 -154.210938 L 2340.230469 -150.519531 L 7.855469 2181.859375 "/>
<path fill-rule="nonzero" fill="rgb(0%, 0%, 0%)" fill-opacity="1" d="M 49.449219 2181.859375 L 45.757812 2178.171875 L 2378.128906 -154.210938 L 2381.820312 -150.519531 L 49.449219 2181.859375 "/>
<path fill-rule="nonzero" fill="rgb(0%, 0%, 0%)" fill-opacity="1" d="M 91.039062 2181.859375 L 87.347656 2178.171875 L 2419.71875 -154.210938 L 2423.410156 -150.519531 L 91.039062 2181.859375 "/>
<path fill-rule="nonzero" fill="rgb(0%, 0%, 0%)" fill-opacity="1" d="M 132.632812 2181.859375 L 128.941406 2178.171875 L 2461.308594 -154.210938 L 2465.011719 -150.519531 L 132.632812 2181.859375 "/>
<path fill-rule="nonzero" fill="rgb(0%, 0%, 0%)" fill-opacity="1" d="M 174.226562 2181.859375 L 170.53125 2178.171875 L 2502.910156 -154.210938 L 2506.601562 -150.519531 L 174.226562 2181.859375 "/>
<path fill-rule="nonzero" fill="rgb(0%, 0%, 0%)" fill-opacity="1" d="M 215.816406 2181.859375 L 212.125 2178.171875 L 2544.5 -154.210938 L 2548.191406 -150.519531 L 215.816406 2181.859375 "/>
<path fill-rule="nonzero" fill="rgb(0%, 0%, 0%)" fill-opacity="1" d="M 257.410156 2181.859375 L 253.71875 2178.171875 L 2586.089844 -154.210938 L 2589.78125 -150.519531 L 257.410156 2181.859375 "/>
<path fill-rule="nonzero" fill="rgb(0%, 0%, 0%)" fill-opacity="1" d="M 299.003906 2181.859375 L 295.308594 2178.171875 L 2627.679688 -154.210938 L 2631.378906 -150.519531 L 299.003906 2181.859375 "/>
<path fill-rule="nonzero" fill="rgb(0%, 0%, 0%)" fill-opacity="1" d="M 340.59375 2181.859375 L 336.902344 2178.171875 L 2669.28125 -154.210938 L 2672.96875 -150.519531 L 340.59375 2181.859375 "/>
<path fill-rule="nonzero" fill="rgb(0%, 0%, 0%)" fill-opacity="1" d="M 382.1875 2181.859375 L 378.496094 2178.171875 L 2710.871094 -154.210938 L 2714.558594 -150.519531 L 382.1875 2181.859375 "/>
<path fill-rule="nonzero" fill="rgb(0%, 0%, 0%)" fill-opacity="1" d="M 423.78125 2181.859375 L 420.085938 2178.171875 L 2752.460938 -154.210938 L 2756.148438 -150.519531 L 423.78125 2181.859375 "/>
<path fill-rule="nonzero" fill="rgb(0%, 0%, 0%)" fill-opacity="1" d="M 465.371094 2181.859375 L 461.679688 2178.171875 L 2794.050781 -154.210938 L 2797.738281 -150.519531 L 465.371094 2181.859375 "/>
<path fill-rule="nonzero" fill="rgb(0%, 0%, 0%)" fill-opacity="1" d="M 506.964844 2181.859375 L 503.273438 2178.171875 L 2835.640625 -154.210938 L 2839.339844 -150.519531 L 506.964844 2181.859375 "/>
<path fill-rule="nonzero" fill="rgb(0%, 0%, 0%)" fill-opacity="1" d="M 548.558594 2181.859375 L 544.863281 2178.171875 L 2877.238281 -154.210938 L 2880.929688 -150.519531 L 548.558594 2181.859375 "/>
<path fill-rule="nonzero" fill="rgb(0%, 0%, 0%)" fill-opacity="1" d="M 590.148438 2181.859375 L 586.457031 2178.171875 L 2918.828125 -154.210938 L 2922.519531 -150.519531 L 590.148438 2181.859375 "/>
<path fill-rule="nonzero" fill="rgb(0%, 0%, 0%)" fill-opacity="1" d="M 631.742188 2181.859375 L 628.050781 2178.171875 L 2960.421875 -154.210938 L 2964.109375 -150.519531 L 631.742188 2181.859375 "/>
<path fill-rule="nonzero" fill="rgb(0%, 0%, 0%)" fill-opacity="1" d="M 673.335938 2181.859375 L 669.640625 2178.171875 L 3002.011719 -154.210938 L 3005.710938 -150.519531 L 673.335938 2181.859375 "/>
<path fill-rule="nonzero" fill="rgb(0%, 0%, 0%)" fill-opacity="1" d="M 714.925781 2181.859375 L 711.234375 2178.171875 L 3043.609375 -154.210938 L 3047.300781 -150.519531 L 714.925781 2181.859375 "/>
<path fill-rule="nonzero" fill="rgb(0%, 0%, 0%)" fill-opacity="1" d="M 756.519531 2181.859375 L 752.824219 2178.171875 L 3085.199219 -154.210938 L 3088.890625 -150.519531 L 756.519531 2181.859375 "/>
<path fill-rule="nonzero" fill="rgb(0%, 0%, 0%)" fill-opacity="1" d="M 798.109375 2181.859375 L 794.417969 2178.171875 L 3126.789062 -154.210938 L 3130.480469 -150.519531 L 798.109375 2181.859375 "/>
<path fill-rule="nonzero" fill="rgb(0%, 0%, 0%)" fill-opacity="1" d="M 839.703125 2181.859375 L 836.011719 2178.171875 L 3168.378906 -154.210938 L 3172.078125 -150.519531 L 839.703125 2181.859375 "/>
<path fill-rule="nonzero" fill="rgb(0%, 0%, 0%)" fill-opacity="1" d="M 881.296875 2181.859375 L 877.605469 2178.171875 L 3209.980469 -154.210938 L 3213.671875 -150.519531 L 881.296875 2181.859375 "/>
<path fill-rule="nonzero" fill="rgb(0%, 0%, 0%)" fill-opacity="1" d="M 922.886719 2181.859375 L 919.195312 2178.171875 L 3251.570312 -154.210938 L 3255.261719 -150.519531 L 922.886719 2181.859375 "/>
<path fill-rule="nonzero" fill="rgb(0%, 0%, 0%)" fill-opacity="1" d="M 964.480469 2181.859375 L 960.789062 2178.171875 L 3293.160156 -154.210938 L 3296.851562 -150.519531 L 964.480469 2181.859375 "/>
<path fill-rule="nonzero" fill="rgb(0%, 0%, 0%)" fill-opacity="1" d="M 1006.070312 2181.859375 L 1002.378906 2178.171875 L 3334.75 -154.210938 L 3338.449219 -150.519531 L 1006.070312 2181.859375 "/>
<path fill-rule="nonzero" fill="rgb(0%, 0%, 0%)" fill-opacity="1" d="M 1047.671875 2181.859375 L 1043.96875 2178.171875 L 3376.351562 -154.210938 L 3380.039062 -150.519531 L 1047.671875 2181.859375 "/>
<path fill-rule="nonzero" fill="rgb(0%, 0%, 0%)" fill-opacity="1" d="M 1089.261719 2181.859375 L 1085.570312 2178.171875 L 3417.941406 -154.210938 L 3421.628906 -150.519531 L 1089.261719 2181.859375 "/>
<path fill-rule="nonzero" fill="rgb(0%, 0%, 0%)" fill-opacity="1" d="M 1130.851562 2181.859375 L 1127.160156 2178.171875 L 3459.53125 -154.210938 L 3463.21875 -150.519531 L 1130.851562 2181.859375 "/>
<path fill-rule="nonzero" fill="rgb(0%, 0%, 0%)" fill-opacity="1" d="M 1172.441406 2181.859375 L 1168.75 2178.171875 L 3501.121094 -154.210938 L 3504.820312 -150.519531 L 1172.441406 2181.859375 "/>
<path fill-rule="nonzero" fill="rgb(0%, 0%, 0%)" fill-opacity="1" d="M 1214.03125 2181.859375 L 1210.339844 2178.171875 L 3542.71875 -154.210938 L 3546.410156 -150.519531 L 1214.03125 2181.859375 "/>
<path fill-rule="nonzero" fill="rgb(0%, 0%, 0%)" fill-opacity="1" d="M 1255.628906 2181.859375 L 1251.941406 2178.171875 L 3584.308594 -154.210938 L 3588 -150.519531 L 1255.628906 2181.859375 "/>
<path fill-rule="nonzero" fill="rgb(0%, 0%, 0%)" fill-opacity="1" d="M 1297.21875 2181.859375 L 1293.53125 2178.171875 L 3625.898438 -154.210938 L 3629.589844 -150.519531 L 1297.21875 2181.859375 "/>
<path fill-rule="nonzero" fill="rgb(0%, 0%, 0%)" fill-opacity="1" d="M 1338.808594 2181.859375 L 1335.121094 2178.171875 L 3667.488281 -154.210938 L 3671.179688 -150.519531 L 1338.808594 2181.859375 "/>
<path fill-rule="nonzero" fill="rgb(0%, 0%, 0%)" fill-opacity="1" d="M 1380.398438 2181.859375 L 1376.710938 2178.171875 L 3709.078125 -154.210938 L 3712.78125 -150.519531 L 1380.398438 2181.859375 "/>
<path fill-rule="nonzero" fill="rgb(0%, 0%, 0%)" fill-opacity="1" d="M 1422 2181.859375 L 1418.300781 2178.171875 L 3750.679688 -154.210938 L 3754.371094 -150.519531 L 1422 2181.859375 "/>
<path fill-rule="nonzero" fill="rgb(0%, 0%, 0%)" fill-opacity="1" d="M 1463.589844 2181.859375 L 1459.898438 2178.171875 L 3792.269531 -154.210938 L 3795.960938 -150.519531 L 1463.589844 2181.859375 "/>
<path fill-rule="nonzero" fill="rgb(0%, 0%, 0%)" fill-opacity="1" d="M 1505.179688 2181.859375 L 1501.488281 2178.171875 L 3833.859375 -154.210938 L 3837.550781 -150.519531 L 1505.179688 2181.859375 "/>
<path fill-rule="nonzero" fill="rgb(0%, 0%, 0%)" fill-opacity="1" d="M 1546.769531 2181.859375 L 1543.078125 2178.171875 L 3875.449219 -154.210938 L 3879.148438 -150.519531 L 1546.769531 2181.859375 "/>
<path fill-rule="nonzero" fill="rgb(0%, 0%, 0%)" fill-opacity="1" d="M 1588.371094 2181.859375 L 1584.671875 2178.171875 L 3917.050781 -154.210938 L 3920.738281 -150.519531 L 1588.371094 2181.859375 "/>
<path fill-rule="nonzero" fill="rgb(0%, 0%, 0%)" fill-opacity="1" d="M 1629.960938 2181.859375 L 1626.269531 2178.171875 L 3958.640625 -154.210938 L 3962.328125 -150.519531 L 1629.960938 2181.859375 "/>
<path fill-rule="nonzero" fill="rgb(0%, 0%, 0%)" fill-opacity="1" d="M 1671.550781 2181.859375 L 1667.859375 2178.171875 L 4000.230469 -154.210938 L 4003.921875 -150.519531 L 1671.550781 2181.859375 "/>
<path fill-rule="nonzero" fill="rgb(0%, 0%, 0%)" fill-opacity="1" d="M 1713.140625 2181.859375 L 1709.449219 2178.171875 L 4041.820312 -154.210938 L 4045.519531 -150.519531 L 1713.140625 2181.859375 "/>
<path fill-rule="nonzero" fill="rgb(0%, 0%, 0%)" fill-opacity="1" d="M 1754.738281 2181.859375 L 1751.039062 2178.171875 L 4083.421875 -154.210938 L 4087.109375 -150.519531 L 1754.738281 2181.859375 "/>
<path fill-rule="nonzero" fill="rgb(0%, 0%, 0%)" fill-opacity="1" d="M 1796.328125 2181.859375 L 1792.640625 2178.171875 L 4125.011719 -154.210938 L 4128.699219 -150.519531 L 1796.328125 2181.859375 "/>
<path fill-rule="nonzero" fill="rgb(0%, 0%, 0%)" fill-opacity="1" d="M 1837.921875 2181.859375 L 1834.230469 2178.171875 L 4166.601562 -154.210938 L 4170.289062 -150.519531 L 1837.921875 2181.859375 "/>
<path fill-rule="nonzero" fill="rgb(0%, 0%, 0%)" fill-opacity="1" d="M 1879.511719 2181.859375 L 1875.820312 2178.171875 L 4208.191406 -154.210938 L 4211.890625 -150.519531 L 1879.511719 2181.859375 "/>
<path fill-rule="nonzero" fill="rgb(0%, 0%, 0%)" fill-opacity="1" d="M 1921.109375 2181.859375 L 1917.410156 2178.171875 L 4249.789062 -154.210938 L 4253.480469 -150.519531 L 1921.109375 2181.859375 "/>
<path fill-rule="nonzero" fill="rgb(0%, 0%, 0%)" fill-opacity="1" d="M 1962.699219 2181.859375 L 1959.011719 2178.171875 L 4291.378906 -154.210938 L 4295.070312 -150.519531 L 1962.699219 2181.859375 "/>
<path fill-rule="nonzero" fill="rgb(0%, 0%, 0%)" fill-opacity="1" d="M 2004.289062 2181.859375 L 2000.601562 2178.171875 L 4332.96875 -154.210938 L 4336.660156 -150.519531 L 2004.289062 2181.859375 "/>
<path fill-rule="nonzero" fill="rgb(0%, 0%, 0%)" fill-opacity="1" d="M 2045.878906 2181.859375 L 2042.191406 2178.171875 L 4374.558594 -154.210938 L 4378.261719 -150.519531 L 2045.878906 2181.859375 "/>
<path fill-rule="nonzero" fill="rgb(0%, 0%, 0%)" fill-opacity="1" d="M 2087.46875 2181.859375 L 2083.78125 2178.171875 L 4416.160156 -154.210938 L 4419.851562 -150.519531 L 2087.46875 2181.859375 "/>
<path fill-rule="nonzero" fill="rgb(0%, 0%, 0%)" fill-opacity="1" d="M 2129.070312 2181.859375 L 2125.378906 2178.171875 L 4457.75 -154.210938 L 4461.441406 -150.519531 L 2129.070312 2181.859375 "/>
<path fill-rule="nonzero" fill="rgb(0%, 0%, 0%)" fill-opacity="1" d="M 2170.660156 2181.859375 L 2166.96875 2178.171875 L 4499.339844 -154.210938 L 4503.03125 -150.519531 L 2170.660156 2181.859375 "/>
<path fill-rule="nonzero" fill="rgb(0%, 0%, 0%)" fill-opacity="1" d="M 2212.25 2181.859375 L 2208.558594 2178.171875 L 4540.929688 -154.210938 L 4544.621094 -150.519531 L 2212.25 2181.859375 "/>
<path fill-rule="nonzero" fill="rgb(0%, 0%, 0%)" fill-opacity="1" d="M 2253.839844 2181.859375 L 2250.148438 2178.171875 L 4582.53125 -154.210938 L 4586.21875 -150.519531 L 2253.839844 2181.859375 "/>
<path fill-rule="nonzero" fill="rgb(0%, 0%, 0%)" fill-opacity="1" d="M 2295.441406 2181.859375 L 2291.738281 2178.171875 L 4624.121094 -154.210938 L 4627.808594 -150.519531 L 2295.441406 2181.859375 "/>
<path fill-rule="nonzero" fill="rgb(0%, 0%, 0%)" fill-opacity="1" d="M 2337.03125 2181.859375 L 2333.339844 2178.171875 L 4665.710938 -154.210938 L 4669.398438 -150.519531 L 2337.03125 2181.859375 "/>
<path fill-rule="nonzero" fill="rgb(0%, 0%, 0%)" fill-opacity="1" d="M 2378.621094 2181.859375 L 2374.929688 2178.171875 L 4707.300781 -154.210938 L 4710.988281 -150.519531 L 2378.621094 2181.859375 "/>
<path fill-rule="nonzero" fill="rgb(0%, 0%, 0%)" fill-opacity="1" d="M 2420.210938 2181.859375 L 2416.519531 2178.171875 L 4748.890625 -154.210938 L 4752.589844 -150.519531 L 2420.210938 2181.859375 "/>
<path fill-rule="nonzero" fill="rgb(0%, 0%, 0%)" fill-opacity="1" d="M 2461.808594 2181.859375 L 2458.109375 2178.171875 L 4790.488281 -154.210938 L 4794.179688 -150.519531 L 2461.808594 2181.859375 "/>
<path fill-rule="nonzero" fill="rgb(0%, 0%, 0%)" fill-opacity="1" d="M 2503.398438 2181.859375 L 2499.710938 2178.171875 L 4832.078125 -154.210938 L 4835.769531 -150.519531 L 2503.398438 2181.859375 "/>
<path fill-rule="nonzero" fill="rgb(0%, 0%, 0%)" fill-opacity="1" d="M 2544.988281 2181.859375 L 2541.300781 2178.171875 L 4873.671875 -154.210938 L 4877.359375 -150.519531 L 2544.988281 2181.859375 "/>
<path fill-rule="nonzero" fill="rgb(0%, 0%, 0%)" fill-opacity="1" d="M 2586.578125 2181.859375 L 2582.890625 2178.171875 L 4915.261719 -154.210938 L 4918.960938 -150.519531 L 2586.578125 2181.859375 "/>
<path fill-rule="nonzero" fill="rgb(0%, 0%, 0%)" fill-opacity="1" d="M 2628.179688 2181.859375 L 2624.480469 2178.171875 L 4956.859375 -154.210938 L 4960.550781 -150.519531 L 2628.179688 2181.859375 "/>
<path fill-rule="nonzero" fill="rgb(0%, 0%, 0%)" fill-opacity="1" d="M 2669.769531 2181.859375 L 2666.078125 2178.171875 L 4998.449219 -154.210938 L 5002.140625 -150.519531 L 2669.769531 2181.859375 "/>
<path fill-rule="nonzero" fill="rgb(0%, 0%, 0%)" fill-opacity="1" d="M 2711.359375 2181.859375 L 2707.671875 2178.171875 L 5040.039062 -154.210938 L 5043.730469 -150.519531 L 2711.359375 2181.859375 "/>
<path fill-rule="nonzero" fill="rgb(0%, 0%, 0%)" fill-opacity="1" d="M 2752.949219 2181.859375 L 2749.261719 2178.171875 L 5081.628906 -154.210938 L 5085.328125 -150.519531 L 2752.949219 2181.859375 "/>
<path fill-rule="nonzero" fill="rgb(0%, 0%, 0%)" fill-opacity="1" d="M 2794.539062 2181.859375 L 2790.851562 2178.171875 L 5123.230469 -154.210938 L 5126.921875 -150.519531 L 2794.539062 2181.859375 "/>
<path fill-rule="nonzero" fill="rgb(0%, 0%, 0%)" fill-opacity="1" d="M 2836.140625 2181.859375 L 2832.449219 2178.171875 L 5164.820312 -154.210938 L 5168.511719 -150.519531 L 2836.140625 2181.859375 "/>
<path fill-rule="nonzero" fill="rgb(0%, 0%, 0%)" fill-opacity="1" d="M 2877.730469 2181.859375 L 2874.039062 2178.171875 L 5206.410156 -154.210938 L 5210.101562 -150.519531 L 2877.730469 2181.859375 "/>
<path fill-rule="nonzero" fill="rgb(0%, 0%, 0%)" fill-opacity="1" d="M 2919.320312 2181.859375 L 2915.628906 2178.171875 L 5248 -154.210938 L 5251.699219 -150.519531 L 2919.320312 2181.859375 "/>
<path fill-rule="nonzero" fill="rgb(0%, 0%, 0%)" fill-opacity="1" d="M 2960.921875 2181.859375 L 2957.21875 2178.171875 L 5289.601562 -154.210938 L 5293.289062 -150.519531 L 2960.921875 2181.859375 "/>
<path fill-rule="nonzero" fill="rgb(0%, 0%, 0%)" fill-opacity="1" d="M 3002.511719 2181.859375 L 2998.808594 2178.171875 L 5331.191406 -154.210938 L 5334.878906 -150.519531 L 3002.511719 2181.859375 "/>
<path fill-rule="nonzero" fill="rgb(0%, 0%, 0%)" fill-opacity="1" d="M 3044.101562 2181.859375 L 3040.410156 2178.171875 L 5372.78125 -154.210938 L 5376.46875 -150.519531 L 3044.101562 2181.859375 "/>
<path fill-rule="nonzero" fill="rgb(0%, 0%, 0%)" fill-opacity="1" d="M 3085.691406 2181.859375 L 3082 2178.171875 L 5414.371094 -154.210938 L 5418.058594 -150.519531 L 3085.691406 2181.859375 "/>
<path fill-rule="nonzero" fill="rgb(0%, 0%, 0%)" fill-opacity="1" d="M 3127.28125 2181.859375 L 3123.589844 2178.171875 L 5455.96875 -154.210938 L 5459.660156 -150.519531 L 3127.28125 2181.859375 "/>
<path fill-rule="nonzero" fill="rgb(0%, 0%, 0%)" fill-opacity="1" d="M 3168.878906 2181.859375 L 3165.179688 2178.171875 L 5497.558594 -154.210938 L 5501.25 -150.519531 L 3168.878906 2181.859375 "/>
<path fill-rule="nonzero" fill="rgb(0%, 0%, 0%)" fill-opacity="1" d="M 3210.46875 2181.859375 L 3206.78125 2178.171875 L 5539.148438 -154.210938 L 5542.839844 -150.519531 L 3210.46875 2181.859375 "/>
<path fill-rule="nonzero" fill="rgb(0%, 0%, 0%)" fill-opacity="1" d="M 3252.058594 2181.859375 L 3248.371094 2178.171875 L 5580.738281 -154.210938 L 5584.429688 -150.519531 L 3252.058594 2181.859375 "/>
<path fill-rule="nonzero" fill="rgb(0%, 0%, 0%)" fill-opacity="1" d="M 3293.648438 2181.859375 L 3289.960938 2178.171875 L 5622.328125 -154.210938 L 5626.03125 -150.519531 L 3293.648438 2181.859375 "/>
<path fill-rule="nonzero" fill="rgb(0%, 0%, 0%)" fill-opacity="1" d="M 3335.25 2181.859375 L 3331.550781 2178.171875 L 5663.929688 -154.210938 L 5667.621094 -150.519531 L 3335.25 2181.859375 "/>
<path fill-rule="nonzero" fill="rgb(0%, 0%, 0%)" fill-opacity="1" d="M 3376.839844 2181.859375 L 3373.148438 2178.171875 L 5705.519531 -154.210938 L 5709.210938 -150.519531 L 3376.839844 2181.859375 "/>
<path fill-rule="nonzero" fill="rgb(0%, 0%, 0%)" fill-opacity="1" d="M 3418.429688 2181.859375 L 3414.738281 2178.171875 L 5747.109375 -154.210938 L 5750.800781 -150.519531 L 3418.429688 2181.859375 "/>
</svg>
