<?xml version="1.0" encoding="UTF-8"?>
<svg xmlns="http://www.w3.org/2000/svg" xmlns:xlink="http://www.w3.org/1999/xlink" width="2500" height="2500" viewBox="0 0 2500 2500">
<defs>
<clipPath id="clip-0">
<path clip-rule="nonzero" d="M 2500 2500 L 0 2500 L 0 0 L 2500 0 L 2500 2500 M 1116.871094 2002.140625 C 1116.871094 2002.140625 1114.839844 2031.148438 1095.191406 2031.148438 C 1114.839844 2031.148438 1116.871094 2060.171875 1116.871094 2060.171875 C 1116.871094 2060.171875 1118.898438 2031.148438 1138.550781 2031.148438 C 1118.898438 2031.148438 1116.871094 2002.140625 1116.871094 2002.140625 M 1971.859375 1944.109375 C 1971.859375 1944.109375 1969.828125 1973.121094 1950.179688 1973.121094 C 1969.828125 1973.121094 1971.859375 2002.140625 1971.859375 2002.140625 C 1971.859375 2002.140625 1973.878906 1973.121094 1993.539062 1973.121094 C 1973.878906 1973.121094 1971.859375 1944.109375 1971.859375 1944.109375 M 323.984375 1653.449219 C 323.984375 1653.449219 321.953125 1682.46875 302.300781 1682.46875 C 321.953125 1682.46875 323.984375 1711.480469 323.984375 1711.480469 C 323.984375 1711.480469 326.007812 1682.46875 345.664062 1682.46875 C 326.007812 1682.46875 323.984375 1653.449219 323.984375 1653.449219 M 1359.359375 1365.160156 C 1359.359375 1365.160156 1355.460938 1421.070312 1317.578125 1421.070312 C 1355.460938 1421.070312 1359.359375 1476.980469 1359.359375 1476.980469 C 1359.359375 1476.980469 1363.269531 1421.070312 1401.148438 1421.070312 C 1363.269531 1421.070312 1359.359375 1365.160156 1359.359375 1365.160156 M 2180.480469 1162.949219 C 2180.480469 1162.949219 2178.449219 1191.96875 2158.800781 1191.96875 C 2178.449219 1191.96875 2180.480469 1220.980469 2180.480469 1220.980469 C 2180.480469 1220.980469 2182.5 1191.96875 2202.160156 1191.96875 C 2182.5 1191.96875 2180.480469 1162.949219 2180.480469 1162.949219 M 795.40625 1031.089844 C 795.40625 1031.089844 793.378906 1054.179688 773.722656 1054.179688 C 793.378906 1054.179688 795.40625 1077.28125 795.40625 1077.28125 C 795.40625 1077.28125 797.429688 1054.179688 817.089844 1054.179688 C 797.429688 1054.179688 795.40625 1031.089844 795.40625 1031.089844 M 1836.171875 665.050781 C 1836.171875 665.050781 1834.140625 694.058594 1814.480469 694.058594 C 1834.140625 694.058594 1836.171875 723.078125 1836.171875 723.078125 C 1836.171875 723.078125 1838.191406 694.058594 1857.851562 694.058594 C 1838.191406 694.058594 1836.171875 665.050781 1836.171875 665.050781 M 391.085938 572.890625 C 391.085938 572.890625 387.179688 628.800781 349.304688 628.800781 C 387.179688 628.800781 391.085938 684.71875 391.085938 684.71875 C 391.085938 684.71875 394.988281 628.800781 432.867188 628.800781 C 394.988281 628.800781 391.085938 572.890625 391.085938 572.890625 M 1138.550781 321.898438 C 1138.550781 321.898438 1136.53125 350.910156 1116.871094 350.910156 C 1136.53125 350.910156 1138.550781 379.929688 1138.550781 379.929688 C 1138.550781 379.929688 1140.578125 350.910156 1160.238281 350.910156 C 1140.578125 350.910156 1138.550781 321.898438 1138.550781 321.898438 "/>
</clipPath>
<clipPath id="clip-1">
<path clip-rule="nonzero" d="M 2500 2500 L 0 2500 L 0 0 L 2500 0 L 2500 2500 M 1116.871094 2002.140625 C 1116.871094 2002.140625 1114.839844 2031.148438 1095.191406 2031.148438 C 1114.839844 2031.148438 1116.871094 2060.171875 1116.871094 2060.171875 C 1116.871094 2060.171875 1118.898438 2031.148438 1138.550781 2031.148438 C 1118.898438 2031.148438 1116.871094 2002.140625 1116.871094 2002.140625 M 1971.859375 1944.109375 C 1971.859375 1944.109375 1969.828125 1973.121094 1950.179688 1973.121094 C 1969.828125 1973.121094 1971.859375 2002.140625 1971.859375 2002.140625 C 1971.859375 2002.140625 1973.878906 1973.121094 1993.539062 1973.121094 C 1973.878906 1973.121094 1971.859375 1944.109375 1971.859375 1944.109375 M 323.984375 1653.449219 C 323.984375 1653.449219 321.953125 1682.46875 302.300781 1682.46875 C 321.953125 1682.46875 323.984375 1711.480469 323.984375 1711.480469 C 323.984375 1711.480469 326.007812 1682.46875 345.664062 1682.46875 C 326.007812 1682.46875 323.984375 1653.449219 323.984375 1653.449219 M 1359.359375 1365.160156 C 1359.359375 1365.160156 1355.460938 1421.070312 1317.578125 1421.070312 C 1355.460938 1421.070312 1359.359375 1476.980469 1359.359375 1476.980469 C 1359.359375 1476.980469 1363.269531 1421.070312 1401.148438 1421.070312 C 1363.269531 1421.070312 1359.359375 1365.160156 1359.359375 1365.160156 M 2180.480469 1162.949219 C 2180.480469 1162.949219 2178.449219 1191.96875 2158.800781 1191.96875 C 2178.449219 1191.96875 2180.480469 1220.980469 2180.480469 1220.980469 C 2180.480469 1220.980469 2182.5 1191.96875 2202.160156 1191.96875 C 2182.5 1191.96875 2180.480469 1162.949219 2180.480469 1162.949219 M 795.40625 1031.089844 C 795.40625 1031.089844 793.378906 1054.179688 773.722656 1054.179688 C 793.378906 1054.179688 795.40625 1077.28125 795.40625 1077.28125 C 795.40625 1077.28125 797.429688 1054.179688 817.089844 1054.179688 C 797.429688 1054.179688 795.40625 1031.089844 795.40625 1031.089844 M 1836.171875 665.050781 C 1836.171875 665.050781 1834.140625 694.058594 1814.480469 694.058594 C 1834.140625 694.058594 1836.171875 723.078125 1836.171875 723.078125 C 1836.171875 723.078125 1838.191406 694.058594 1857.851562 694.058594 C 1838.191406 694.058594 1836.171875 665.050781 1836.171875 665.050781 M 391.085938 572.890625 C 391.085938 572.890625 387.179688 628.800781 349.304688 628.800781 C 387.179688 628.800781 391.085938 684.71875 391.085938 684.71875 C 391.085938 684.71875 394.988281 628.800781 432.867188 628.800781 C 394.988281 628.800781 391.085938 572.890625 391.085938 572.890625 M 1138.550781 321.898438 C 1138.550781 321.898438 1136.53125 350.910156 1116.871094 350.910156 C 1136.53125 350.910156 1138.550781 379.929688 1138.550781 379.929688 C 1138.550781 379.929688 1140.578125 350.910156 1160.238281 350.910156 C 1140.578125 350.910156 1138.550781 321.898438 1138.550781 321.898438 "/>
</clipPath>
<linearGradient id="linear-pattern-0" gradientUnits="userSpaceOnUse" x1="0.000000000000000222" y1="0" x2="1" y2="0" gradientTransform="matrix(0, -2500, 2500, 0, 1250, 2500)">
<stop offset="0" stop-color="rgb(100%, 70.979309%, 78.822327%)" stop-opacity="1"/>
<stop offset="0.0078125" stop-color="rgb(99.977112%, 70.904541%, 78.704834%)" stop-opacity="1"/>
<stop offset="0.015625" stop-color="rgb(99.934387%, 70.753479%, 78.468323%)" stop-opacity="1"/>
<stop offset="0.0234375" stop-color="rgb(99.891663%, 70.603943%, 78.231812%)" stop-opacity="1"/>
<stop offset="0.03125" stop-color="rgb(99.848938%, 70.454407%, 77.996826%)" stop-opacity="1"/>
<stop offset="0.0390625" stop-color="rgb(99.806213%, 70.303345%, 77.760315%)" stop-opacity="1"/>
<stop offset="0.046875" stop-color="rgb(99.763489%, 70.153809%, 77.52533%)" stop-opacity="1"/>
<stop offset="0.0546875" stop-color="rgb(99.720764%, 70.004272%, 77.288818%)" stop-opacity="1"/>
<stop offset="0.0625" stop-color="rgb(99.67804%, 69.85321%, 77.052307%)" stop-opacity="1"/>
<stop offset="0.0703125" stop-color="rgb(99.635315%, 69.703674%, 76.817322%)" stop-opacity="1"/>
<stop offset="0.078125" stop-color="rgb(99.591064%, 69.552612%, 76.580811%)" stop-opacity="1"/>
<stop offset="0.0859375" stop-color="rgb(99.54834%, 69.403076%, 76.345825%)" stop-opacity="1"/>
<stop offset="0.09375" stop-color="rgb(99.505615%, 69.25354%, 76.109314%)" stop-opacity="1"/>
<stop offset="0.101562" stop-color="rgb(99.462891%, 69.102478%, 75.872803%)" stop-opacity="1"/>
<stop offset="0.109375" stop-color="rgb(99.420166%, 68.952942%, 75.637817%)" stop-opacity="1"/>
<stop offset="0.117188" stop-color="rgb(99.377441%, 68.80188%, 75.401306%)" stop-opacity="1"/>
<stop offset="0.125" stop-color="rgb(99.334717%, 68.652344%, 75.166321%)" stop-opacity="1"/>
<stop offset="0.132812" stop-color="rgb(99.291992%, 68.502808%, 74.92981%)" stop-opacity="1"/>
<stop offset="0.140625" stop-color="rgb(99.249268%, 68.351746%, 74.693298%)" stop-opacity="1"/>
<stop offset="0.148438" stop-color="rgb(99.205017%, 68.202209%, 74.458313%)" stop-opacity="1"/>
<stop offset="0.15625" stop-color="rgb(99.162292%, 68.052673%, 74.221802%)" stop-opacity="1"/>
<stop offset="0.164062" stop-color="rgb(99.119568%, 67.901611%, 73.986816%)" stop-opacity="1"/>
<stop offset="0.171875" stop-color="rgb(99.076843%, 67.752075%, 73.750305%)" stop-opacity="1"/>
<stop offset="0.179688" stop-color="rgb(99.034119%, 67.601013%, 73.513794%)" stop-opacity="1"/>
<stop offset="0.1875" stop-color="rgb(98.991394%, 67.451477%, 73.278809%)" stop-opacity="1"/>
<stop offset="0.195312" stop-color="rgb(98.948669%, 67.301941%, 73.042297%)" stop-opacity="1"/>
<stop offset="0.203125" stop-color="rgb(98.905945%, 67.150879%, 72.807312%)" stop-opacity="1"/>
<stop offset="0.210938" stop-color="rgb(98.86322%, 67.001343%, 72.570801%)" stop-opacity="1"/>
<stop offset="0.21875" stop-color="rgb(98.81897%, 66.850281%, 72.33429%)" stop-opacity="1"/>
<stop offset="0.226562" stop-color="rgb(98.776245%, 66.700745%, 72.099304%)" stop-opacity="1"/>
<stop offset="0.234375" stop-color="rgb(98.733521%, 66.551208%, 71.862793%)" stop-opacity="1"/>
<stop offset="0.242188" stop-color="rgb(98.690796%, 66.400146%, 71.627808%)" stop-opacity="1"/>
<stop offset="0.25" stop-color="rgb(98.648071%, 66.25061%, 71.391296%)" stop-opacity="1"/>
<stop offset="0.257812" stop-color="rgb(98.605347%, 66.101074%, 71.154785%)" stop-opacity="1"/>
<stop offset="0.265625" stop-color="rgb(98.562622%, 65.950012%, 70.9198%)" stop-opacity="1"/>
<stop offset="0.273438" stop-color="rgb(98.519897%, 65.800476%, 70.683289%)" stop-opacity="1"/>
<stop offset="0.28125" stop-color="rgb(98.477173%, 65.649414%, 70.448303%)" stop-opacity="1"/>
<stop offset="0.289062" stop-color="rgb(98.432922%, 65.499878%, 70.211792%)" stop-opacity="1"/>
<stop offset="0.296875" stop-color="rgb(98.390198%, 65.350342%, 69.975281%)" stop-opacity="1"/>
<stop offset="0.304688" stop-color="rgb(98.347473%, 65.19928%, 69.740295%)" stop-opacity="1"/>
<stop offset="0.3125" stop-color="rgb(98.304749%, 65.049744%, 69.503784%)" stop-opacity="1"/>
<stop offset="0.320312" stop-color="rgb(98.262024%, 64.898682%, 69.268799%)" stop-opacity="1"/>
<stop offset="0.328125" stop-color="rgb(98.219299%, 64.749146%, 69.032288%)" stop-opacity="1"/>
<stop offset="0.335938" stop-color="rgb(98.176575%, 64.599609%, 68.795776%)" stop-opacity="1"/>
<stop offset="0.34375" stop-color="rgb(98.13385%, 64.448547%, 68.560791%)" stop-opacity="1"/>
<stop offset="0.351562" stop-color="rgb(98.091125%, 64.299011%, 68.32428%)" stop-opacity="1"/>
<stop offset="0.359375" stop-color="rgb(98.046875%, 64.149475%, 68.089294%)" stop-opacity="1"/>
<stop offset="0.367188" stop-color="rgb(98.00415%, 63.998413%, 67.852783%)" stop-opacity="1"/>
<stop offset="0.375" stop-color="rgb(97.961426%, 63.848877%, 67.616272%)" stop-opacity="1"/>
<stop offset="0.382812" stop-color="rgb(97.918701%, 63.697815%, 67.381287%)" stop-opacity="1"/>
<stop offset="0.390625" stop-color="rgb(97.875977%, 63.548279%, 67.144775%)" stop-opacity="1"/>
<stop offset="0.398438" stop-color="rgb(97.833252%, 63.398743%, 66.908264%)" stop-opacity="1"/>
<stop offset="0.40625" stop-color="rgb(97.790527%, 63.247681%, 66.673279%)" stop-opacity="1"/>
<stop offset="0.414062" stop-color="rgb(97.747803%, 63.098145%, 66.436768%)" stop-opacity="1"/>
<stop offset="0.421875" stop-color="rgb(97.705078%, 62.947083%, 66.201782%)" stop-opacity="1"/>
<stop offset="0.429688" stop-color="rgb(97.660828%, 62.797546%, 65.965271%)" stop-opacity="1"/>
<stop offset="0.4375" stop-color="rgb(97.618103%, 62.64801%, 65.72876%)" stop-opacity="1"/>
<stop offset="0.445312" stop-color="rgb(97.575378%, 62.496948%, 65.493774%)" stop-opacity="1"/>
<stop offset="0.453125" stop-color="rgb(97.532654%, 62.347412%, 65.257263%)" stop-opacity="1"/>
<stop offset="0.460938" stop-color="rgb(97.489929%, 62.197876%, 65.022278%)" stop-opacity="1"/>
<stop offset="0.46875" stop-color="rgb(97.447205%, 62.046814%, 64.785767%)" stop-opacity="1"/>
<stop offset="0.476562" stop-color="rgb(97.40448%, 61.897278%, 64.549255%)" stop-opacity="1"/>
<stop offset="0.484375" stop-color="rgb(97.361755%, 61.746216%, 64.31427%)" stop-opacity="1"/>
<stop offset="0.492188" stop-color="rgb(97.319031%, 61.59668%, 64.077759%)" stop-opacity="1"/>
<stop offset="0.5" stop-color="rgb(97.27478%, 61.447144%, 63.842773%)" stop-opacity="1"/>
<stop offset="0.507812" stop-color="rgb(97.232056%, 61.296082%, 63.606262%)" stop-opacity="1"/>
<stop offset="0.515625" stop-color="rgb(97.189331%, 61.146545%, 63.369751%)" stop-opacity="1"/>
<stop offset="0.523438" stop-color="rgb(97.146606%, 60.995483%, 63.134766%)" stop-opacity="1"/>
<stop offset="0.53125" stop-color="rgb(97.103882%, 60.845947%, 62.898254%)" stop-opacity="1"/>
<stop offset="0.539062" stop-color="rgb(97.061157%, 60.696411%, 62.663269%)" stop-opacity="1"/>
<stop offset="0.546875" stop-color="rgb(97.018433%, 60.545349%, 62.426758%)" stop-opacity="1"/>
<stop offset="0.554688" stop-color="rgb(96.975708%, 60.395813%, 62.190247%)" stop-opacity="1"/>
<stop offset="0.5625" stop-color="rgb(96.932983%, 60.246277%, 61.955261%)" stop-opacity="1"/>
<stop offset="0.570312" stop-color="rgb(96.888733%, 60.095215%, 61.71875%)" stop-opacity="1"/>
<stop offset="0.578125" stop-color="rgb(96.846008%, 59.945679%, 61.483765%)" stop-opacity="1"/>
<stop offset="0.585938" stop-color="rgb(96.803284%, 59.794617%, 61.247253%)" stop-opacity="1"/>
<stop offset="0.59375" stop-color="rgb(96.760559%, 59.645081%, 61.010742%)" stop-opacity="1"/>
<stop offset="0.601562" stop-color="rgb(96.717834%, 59.495544%, 60.775757%)" stop-opacity="1"/>
<stop offset="0.609375" stop-color="rgb(96.67511%, 59.344482%, 60.539246%)" stop-opacity="1"/>
<stop offset="0.617188" stop-color="rgb(96.632385%, 59.194946%, 60.30426%)" stop-opacity="1"/>
<stop offset="0.625" stop-color="rgb(96.589661%, 59.043884%, 60.067749%)" stop-opacity="1"/>
<stop offset="0.632812" stop-color="rgb(96.546936%, 58.894348%, 59.831238%)" stop-opacity="1"/>
<stop offset="0.640625" stop-color="rgb(96.502686%, 58.744812%, 59.596252%)" stop-opacity="1"/>
<stop offset="0.648438" stop-color="rgb(96.459961%, 58.59375%, 59.359741%)" stop-opacity="1"/>
<stop offset="0.65625" stop-color="rgb(96.417236%, 58.444214%, 59.124756%)" stop-opacity="1"/>
<stop offset="0.664062" stop-color="rgb(96.374512%, 58.294678%, 58.888245%)" stop-opacity="1"/>
<stop offset="0.671875" stop-color="rgb(96.331787%, 58.143616%, 58.651733%)" stop-opacity="1"/>
<stop offset="0.679688" stop-color="rgb(96.289062%, 57.99408%, 58.416748%)" stop-opacity="1"/>
<stop offset="0.6875" stop-color="rgb(96.246338%, 57.843018%, 58.180237%)" stop-opacity="1"/>
<stop offset="0.695312" stop-color="rgb(96.203613%, 57.693481%, 57.945251%)" stop-opacity="1"/>
<stop offset="0.703125" stop-color="rgb(96.160889%, 57.543945%, 57.70874%)" stop-opacity="1"/>
<stop offset="0.710938" stop-color="rgb(96.118164%, 57.392883%, 57.472229%)" stop-opacity="1"/>
<stop offset="0.71875" stop-color="rgb(96.073914%, 57.243347%, 57.237244%)" stop-opacity="1"/>
<stop offset="0.726562" stop-color="rgb(96.031189%, 57.092285%, 57.000732%)" stop-opacity="1"/>
<stop offset="0.734375" stop-color="rgb(95.988464%, 56.942749%, 56.765747%)" stop-opacity="1"/>
<stop offset="0.742188" stop-color="rgb(95.94574%, 56.793213%, 56.529236%)" stop-opacity="1"/>
<stop offset="0.75" stop-color="rgb(95.903015%, 56.642151%, 56.292725%)" stop-opacity="1"/>
<stop offset="0.757812" stop-color="rgb(95.860291%, 56.492615%, 56.057739%)" stop-opacity="1"/>
<stop offset="0.765625" stop-color="rgb(95.817566%, 56.343079%, 55.821228%)" stop-opacity="1"/>
<stop offset="0.773438" stop-color="rgb(95.774841%, 56.192017%, 55.586243%)" stop-opacity="1"/>
<stop offset="0.78125" stop-color="rgb(95.732117%, 56.04248%, 55.349731%)" stop-opacity="1"/>
<stop offset="0.789062" stop-color="rgb(95.687866%, 55.891418%, 55.11322%)" stop-opacity="1"/>
<stop offset="0.796875" stop-color="rgb(95.645142%, 55.741882%, 54.878235%)" stop-opacity="1"/>
<stop offset="0.804688" stop-color="rgb(95.602417%, 55.592346%, 54.641724%)" stop-opacity="1"/>
<stop offset="0.8125" stop-color="rgb(95.559692%, 55.441284%, 54.406738%)" stop-opacity="1"/>
<stop offset="0.820312" stop-color="rgb(95.516968%, 55.291748%, 54.170227%)" stop-opacity="1"/>
<stop offset="0.828125" stop-color="rgb(95.474243%, 55.140686%, 53.933716%)" stop-opacity="1"/>
<stop offset="0.835938" stop-color="rgb(95.431519%, 54.99115%, 53.69873%)" stop-opacity="1"/>
<stop offset="0.84375" stop-color="rgb(95.388794%, 54.841614%, 53.462219%)" stop-opacity="1"/>
<stop offset="0.851562" stop-color="rgb(95.346069%, 54.690552%, 53.225708%)" stop-opacity="1"/>
<stop offset="0.859375" stop-color="rgb(95.301819%, 54.541016%, 52.990723%)" stop-opacity="1"/>
<stop offset="0.867188" stop-color="rgb(95.259094%, 54.391479%, 52.754211%)" stop-opacity="1"/>
<stop offset="0.875" stop-color="rgb(95.21637%, 54.240417%, 52.519226%)" stop-opacity="1"/>
<stop offset="0.882812" stop-color="rgb(95.173645%, 54.090881%, 52.282715%)" stop-opacity="1"/>
<stop offset="0.890625" stop-color="rgb(95.13092%, 53.939819%, 52.046204%)" stop-opacity="1"/>
<stop offset="0.898438" stop-color="rgb(95.088196%, 53.790283%, 51.811218%)" stop-opacity="1"/>
<stop offset="0.90625" stop-color="rgb(95.045471%, 53.640747%, 51.574707%)" stop-opacity="1"/>
<stop offset="0.914062" stop-color="rgb(95.002747%, 53.489685%, 51.339722%)" stop-opacity="1"/>
<stop offset="0.921875" stop-color="rgb(94.960022%, 53.340149%, 51.10321%)" stop-opacity="1"/>
<stop offset="0.929688" stop-color="rgb(94.915771%, 53.189087%, 50.866699%)" stop-opacity="1"/>
<stop offset="0.9375" stop-color="rgb(94.873047%, 53.039551%, 50.631714%)" stop-opacity="1"/>
<stop offset="0.945312" stop-color="rgb(94.830322%, 52.890015%, 50.395203%)" stop-opacity="1"/>
<stop offset="0.953125" stop-color="rgb(94.787598%, 52.738953%, 50.160217%)" stop-opacity="1"/>
<stop offset="0.960938" stop-color="rgb(94.744873%, 52.589417%, 49.923706%)" stop-opacity="1"/>
<stop offset="0.96875" stop-color="rgb(94.702148%, 52.43988%, 49.687195%)" stop-opacity="1"/>
<stop offset="0.976562" stop-color="rgb(94.659424%, 52.288818%, 49.452209%)" stop-opacity="1"/>
<stop offset="0.984375" stop-color="rgb(94.616699%, 52.139282%, 49.215698%)" stop-opacity="1"/>
<stop offset="0.992188" stop-color="rgb(94.573975%, 51.98822%, 48.980713%)" stop-opacity="1"/>
<stop offset="1" stop-color="rgb(94.529724%, 51.838684%, 48.744202%)" stop-opacity="1"/>
</linearGradient>
<clipPath id="clip-2">
<path clip-rule="nonzero" d="M 1317 1365 L 1402 1365 L 1402 1477 L 1317 1477 Z M 1317 1365 "/>
</clipPath>
<clipPath id="clip-3">
<path clip-rule="nonzero" d="M 1359.359375 1476.980469 C 1359.359375 1476.980469 1355.460938 1421.070312 1317.578125 1421.070312 C 1355.460938 1421.070312 1359.359375 1365.160156 1359.359375 1365.160156 C 1359.359375 1365.160156 1363.269531 1421.070312 1401.148438 1421.070312 C 1363.269531 1421.070312 1359.359375 1476.980469 1359.359375 1476.980469 "/>
</clipPath>
<clipPath id="clip-4">
<path clip-rule="nonzero" d="M 1359.359375 1476.980469 C 1359.359375 1476.980469 1355.460938 1421.070312 1317.578125 1421.070312 C 1355.460938 1421.070312 1359.359375 1365.160156 1359.359375 1365.160156 C 1359.359375 1365.160156 1363.269531 1421.070312 1401.148438 1421.070312 C 1363.269531 1421.070312 1359.359375 1476.980469 1359.359375 1476.980469 "/>
</clipPath>
<linearGradient id="linear-pattern-1" gradientUnits="userSpaceOnUse" x1="0.409208" y1="0" x2="0.453936" y2="0" gradientTransform="matrix(0, -2500, 2500, 0, 1250, 2500)">
<stop offset="0" stop-color="rgb(98.875427%, 81.637573%, 83.312988%)" stop-opacity="1"/>
<stop offset="0.5" stop-color="rgb(98.84491%, 81.532288%, 83.146667%)" stop-opacity="1"/>
<stop offset="1" stop-color="rgb(98.783875%, 81.321716%, 82.8125%)" stop-opacity="1"/>
</linearGradient>
<clipPath id="clip-5">
<path clip-rule="nonzero" d="M 349 572 L 433 572 L 433 685 L 349 685 Z M 349 572 "/>
</clipPath>
<clipPath id="clip-6">
<path clip-rule="nonzero" d="M 391.085938 684.71875 C 391.085938 684.71875 387.179688 628.800781 349.304688 628.800781 C 387.179688 628.800781 391.085938 572.890625 391.085938 572.890625 C 391.085938 572.890625 394.988281 628.800781 432.867188 628.800781 C 394.988281 628.800781 391.085938 684.71875 391.085938 684.71875 "/>
</clipPath>
<clipPath id="clip-7">
<path clip-rule="nonzero" d="M 391.085938 684.71875 C 391.085938 684.71875 387.179688 628.800781 349.304688 628.800781 C 387.179688 628.800781 391.085938 572.890625 391.085938 572.890625 C 391.085938 572.890625 394.988281 628.800781 432.867188 628.800781 C 394.988281 628.800781 391.085938 684.71875 391.085938 684.71875 "/>
</clipPath>
<linearGradient id="linear-pattern-2" gradientUnits="userSpaceOnUse" x1="0.726112" y1="0" x2="0.770844" y2="0" gradientTransform="matrix(0, -2500, 2500, 0, 1250, 2500)">
<stop offset="0" stop-color="rgb(98.005676%, 78.656006%, 78.590393%)" stop-opacity="1"/>
<stop offset="0.5" stop-color="rgb(97.975159%, 78.55072%, 78.424072%)" stop-opacity="1"/>
<stop offset="1" stop-color="rgb(97.914124%, 78.340149%, 78.089905%)" stop-opacity="1"/>
</linearGradient>
<clipPath id="clip-8">
<path clip-rule="nonzero" d="M 773 1031 L 818 1031 L 818 1078 L 773 1078 Z M 773 1031 "/>
</clipPath>
<clipPath id="clip-9">
<path clip-rule="nonzero" d="M 795.40625 1077.28125 C 795.40625 1077.28125 793.378906 1054.179688 773.722656 1054.179688 C 793.378906 1054.179688 795.40625 1031.089844 795.40625 1031.089844 C 795.40625 1031.089844 797.429688 1054.179688 817.089844 1054.179688 C 797.429688 1054.179688 795.40625 1077.28125 795.40625 1077.28125 "/>
</clipPath>
<clipPath id="clip-10">
<path clip-rule="nonzero" d="M 795.40625 1077.28125 C 795.40625 1077.28125 793.378906 1054.179688 773.722656 1054.179688 C 793.378906 1054.179688 795.40625 1031.089844 795.40625 1031.089844 C 795.40625 1031.089844 797.429688 1054.179688 817.089844 1054.179688 C 797.429688 1054.179688 795.40625 1077.28125 795.40625 1077.28125 "/>
</clipPath>
<linearGradient id="linear-pattern-3" gradientUnits="userSpaceOnUse" x1="0.569088" y1="0" x2="0.587564" y2="0" gradientTransform="matrix(0, -2500, 2500, 0, 1250, 2500)">
<stop offset="0" stop-color="rgb(98.4375%, 80.133057%, 80.931091%)" stop-opacity="1"/>
<stop offset="0.5" stop-color="rgb(98.423767%, 80.088806%, 80.860901%)" stop-opacity="1"/>
<stop offset="1" stop-color="rgb(98.397827%, 80.001831%, 80.723572%)" stop-opacity="1"/>
</linearGradient>
<clipPath id="clip-11">
<path clip-rule="nonzero" d="M 302 1653 L 346 1653 L 346 1712 L 302 1712 Z M 302 1653 "/>
</clipPath>
<clipPath id="clip-12">
<path clip-rule="nonzero" d="M 323.984375 1711.480469 C 323.984375 1711.480469 321.953125 1682.46875 302.300781 1682.46875 C 321.953125 1682.46875 323.984375 1653.449219 323.984375 1653.449219 C 323.984375 1653.449219 326.007812 1682.46875 345.664062 1682.46875 C 326.007812 1682.46875 323.984375 1711.480469 323.984375 1711.480469 "/>
</clipPath>
<clipPath id="clip-13">
<path clip-rule="nonzero" d="M 323.984375 1711.480469 C 323.984375 1711.480469 321.953125 1682.46875 302.300781 1682.46875 C 321.953125 1682.46875 323.984375 1653.449219 323.984375 1653.449219 C 323.984375 1653.449219 326.007812 1682.46875 345.664062 1682.46875 C 326.007812 1682.46875 323.984375 1711.480469 323.984375 1711.480469 "/>
</clipPath>
<linearGradient id="linear-pattern-4" gradientUnits="userSpaceOnUse" x1="0.315408" y1="0" x2="0.33862" y2="0" gradientTransform="matrix(0, -2500, 2500, 0, 1250, 2500)">
<stop offset="0" stop-color="rgb(99.133301%, 82.521057%, 84.710693%)" stop-opacity="1"/>
<stop offset="0.5" stop-color="rgb(99.116516%, 82.466125%, 84.623718%)" stop-opacity="1"/>
<stop offset="1" stop-color="rgb(99.084473%, 82.356262%, 84.451294%)" stop-opacity="1"/>
</linearGradient>
<clipPath id="clip-14">
<path clip-rule="nonzero" d="M 1095 2002 L 1139 2002 L 1139 2061 L 1095 2061 Z M 1095 2002 "/>
</clipPath>
<clipPath id="clip-15">
<path clip-rule="nonzero" d="M 1116.871094 2060.171875 C 1116.871094 2060.171875 1114.839844 2031.148438 1095.191406 2031.148438 C 1114.839844 2031.148438 1116.871094 2002.140625 1116.871094 2002.140625 C 1116.871094 2002.140625 1118.898438 2031.148438 1138.550781 2031.148438 C 1118.898438 2031.148438 1116.871094 2060.171875 1116.871094 2060.171875 "/>
</clipPath>
<clipPath id="clip-16">
<path clip-rule="nonzero" d="M 1116.871094 2060.171875 C 1116.871094 2060.171875 1114.839844 2031.148438 1095.191406 2031.148438 C 1114.839844 2031.148438 1116.871094 2002.140625 1116.871094 2002.140625 C 1116.871094 2002.140625 1118.898438 2031.148438 1138.550781 2031.148438 C 1118.898438 2031.148438 1116.871094 2060.171875 1116.871094 2060.171875 "/>
</clipPath>
<linearGradient id="linear-pattern-5" gradientUnits="userSpaceOnUse" x1="0.175932" y1="0" x2="0.199144" y2="0" gradientTransform="matrix(0, -2500, 2500, 0, 1250, 2500)">
<stop offset="0" stop-color="rgb(99.516296%, 83.833313%, 86.78894%)" stop-opacity="1"/>
<stop offset="0.5" stop-color="rgb(99.499512%, 83.778381%, 86.701965%)" stop-opacity="1"/>
<stop offset="1" stop-color="rgb(99.467468%, 83.670044%, 86.529541%)" stop-opacity="1"/>
</linearGradient>
<clipPath id="clip-17">
<path clip-rule="nonzero" d="M 1950 1944 L 1994 1944 L 1994 2003 L 1950 2003 Z M 1950 1944 "/>
</clipPath>
<clipPath id="clip-18">
<path clip-rule="nonzero" d="M 1971.859375 2002.140625 C 1971.859375 2002.140625 1969.828125 1973.121094 1950.179688 1973.121094 C 1969.828125 1973.121094 1971.859375 1944.109375 1971.859375 1944.109375 C 1971.859375 1944.109375 1973.878906 1973.121094 1993.539062 1973.121094 C 1973.878906 1973.121094 1971.859375 2002.140625 1971.859375 2002.140625 "/>
</clipPath>
<clipPath id="clip-19">
<path clip-rule="nonzero" d="M 1971.859375 2002.140625 C 1971.859375 2002.140625 1969.828125 1973.121094 1950.179688 1973.121094 C 1969.828125 1973.121094 1971.859375 1944.109375 1971.859375 1944.109375 C 1971.859375 1944.109375 1973.878906 1973.121094 1993.539062 1973.121094 C 1973.878906 1973.121094 1971.859375 2002.140625 1971.859375 2002.140625 "/>
</clipPath>
<linearGradient id="linear-pattern-6" gradientUnits="userSpaceOnUse" x1="0.199144" y1="0" x2="0.222356" y2="0" gradientTransform="matrix(0, -2500, 2500, 0, 1250, 2500)">
<stop offset="0" stop-color="rgb(99.452209%, 83.615112%, 86.444092%)" stop-opacity="1"/>
<stop offset="0.5" stop-color="rgb(99.435425%, 83.560181%, 86.357117%)" stop-opacity="1"/>
<stop offset="1" stop-color="rgb(99.403381%, 83.450317%, 86.183167%)" stop-opacity="1"/>
</linearGradient>
<clipPath id="clip-20">
<path clip-rule="nonzero" d="M 1116 321 L 1161 321 L 1161 380 L 1116 380 Z M 1116 321 "/>
</clipPath>
<clipPath id="clip-21">
<path clip-rule="nonzero" d="M 1138.550781 379.929688 C 1138.550781 379.929688 1136.53125 350.910156 1116.871094 350.910156 C 1136.53125 350.910156 1138.550781 321.898438 1138.550781 321.898438 C 1138.550781 321.898438 1140.578125 350.910156 1160.238281 350.910156 C 1140.578125 350.910156 1138.550781 379.929688 1138.550781 379.929688 "/>
</clipPath>
<clipPath id="clip-22">
<path clip-rule="nonzero" d="M 1138.550781 379.929688 C 1138.550781 379.929688 1136.53125 350.910156 1116.871094 350.910156 C 1136.53125 350.910156 1138.550781 321.898438 1138.550781 321.898438 C 1138.550781 321.898438 1140.578125 350.910156 1160.238281 350.910156 C 1140.578125 350.910156 1138.550781 379.929688 1138.550781 379.929688 "/>
</clipPath>
<linearGradient id="linear-pattern-7" gradientUnits="userSpaceOnUse" x1="0.848028" y1="0" x2="0.87124" y2="0" gradientTransform="matrix(0, -2500, 2500, 0, 1250, 2500)">
<stop offset="0" stop-color="rgb(97.671509%, 77.508545%, 76.773071%)" stop-opacity="1"/>
<stop offset="0.5" stop-color="rgb(97.654724%, 77.453613%, 76.686096%)" stop-opacity="1"/>
<stop offset="1" stop-color="rgb(97.622681%, 77.34375%, 76.513672%)" stop-opacity="1"/>
</linearGradient>
<clipPath id="clip-23">
<path clip-rule="nonzero" d="M 2158 1162 L 2203 1162 L 2203 1221 L 2158 1221 Z M 2158 1162 "/>
</clipPath>
<clipPath id="clip-24">
<path clip-rule="nonzero" d="M 2180.480469 1220.980469 C 2180.480469 1220.980469 2178.449219 1191.96875 2158.800781 1191.96875 C 2178.449219 1191.96875 2180.480469 1162.949219 2180.480469 1162.949219 C 2180.480469 1162.949219 2182.5 1191.96875 2202.160156 1191.96875 C 2182.5 1191.96875 2180.480469 1220.980469 2180.480469 1220.980469 "/>
</clipPath>
<clipPath id="clip-25">
<path clip-rule="nonzero" d="M 2180.480469 1220.980469 C 2180.480469 1220.980469 2178.449219 1191.96875 2158.800781 1191.96875 C 2178.449219 1191.96875 2180.480469 1162.949219 2180.480469 1162.949219 C 2180.480469 1162.949219 2182.5 1191.96875 2202.160156 1191.96875 C 2182.5 1191.96875 2180.480469 1220.980469 2180.480469 1220.980469 "/>
</clipPath>
<linearGradient id="linear-pattern-8" gradientUnits="userSpaceOnUse" x1="0.511608" y1="0" x2="0.53482" y2="0" gradientTransform="matrix(0, -2500, 2500, 0, 1250, 2500)">
<stop offset="0" stop-color="rgb(98.594666%, 80.674744%, 81.787109%)" stop-opacity="1"/>
<stop offset="0.5" stop-color="rgb(98.577881%, 80.619812%, 81.700134%)" stop-opacity="1"/>
<stop offset="1" stop-color="rgb(98.545837%, 80.509949%, 81.52771%)" stop-opacity="1"/>
</linearGradient>
<clipPath id="clip-26">
<path clip-rule="nonzero" d="M 1814 665 L 1858 665 L 1858 724 L 1814 724 Z M 1814 665 "/>
</clipPath>
<clipPath id="clip-27">
<path clip-rule="nonzero" d="M 1836.171875 723.078125 C 1836.171875 723.078125 1834.140625 694.058594 1814.480469 694.058594 C 1834.140625 694.058594 1836.171875 665.050781 1836.171875 665.050781 C 1836.171875 665.050781 1838.191406 694.058594 1857.851562 694.058594 C 1838.191406 694.058594 1836.171875 723.078125 1836.171875 723.078125 "/>
</clipPath>
<clipPath id="clip-28">
<path clip-rule="nonzero" d="M 1836.171875 723.078125 C 1836.171875 723.078125 1834.140625 694.058594 1814.480469 694.058594 C 1834.140625 694.058594 1836.171875 665.050781 1836.171875 665.050781 C 1836.171875 665.050781 1838.191406 694.058594 1857.851562 694.058594 C 1838.191406 694.058594 1836.171875 723.078125 1836.171875 723.078125 "/>
</clipPath>
<linearGradient id="linear-pattern-9" gradientUnits="userSpaceOnUse" x1="0.710768" y1="0" x2="0.73398" y2="0" gradientTransform="matrix(0, -2500, 2500, 0, 1250, 2500)">
<stop offset="0" stop-color="rgb(98.048401%, 78.799438%, 78.819275%)" stop-opacity="1"/>
<stop offset="0.5" stop-color="rgb(98.031616%, 78.744507%, 78.7323%)" stop-opacity="1"/>
<stop offset="1" stop-color="rgb(97.999573%, 78.636169%, 78.559875%)" stop-opacity="1"/>
</linearGradient>
</defs>
<g clip-path="url(#clip-0)">
<g clip-path="url(#clip-1)">
<rect x="-250" y="-250" width="3000" height="3000" fill="url(#linear-pattern-0)"/>
</g>
</g>
<g clip-path="url(#clip-2)">
<g clip-path="url(#clip-3)">
<g clip-path="url(#clip-4)">
<path fill-rule="nonzero" fill="url(#linear-pattern-1)" d="M 1317.578125 1476.980469 L 1401.148438 1476.980469 L 1401.148438 1365.160156 L 1317.578125 1365.160156 Z M 1317.578125 1476.980469 "/>
</g>
</g>
</g>
<g clip-path="url(#clip-5)">
<g clip-path="url(#clip-6)">
<g clip-path="url(#clip-7)">
<path fill-rule="nonzero" fill="url(#linear-pattern-2)" d="M 349.304688 684.71875 L 432.867188 684.71875 L 432.867188 572.890625 L 349.304688 572.890625 Z M 349.304688 684.71875 "/>
</g>
</g>
</g>
<g clip-path="url(#clip-8)">
<g clip-path="url(#clip-9)">
<g clip-path="url(#clip-10)">
<path fill-rule="nonzero" fill="url(#linear-pattern-3)" d="M 773.722656 1077.28125 L 817.089844 1077.28125 L 817.089844 1031.089844 L 773.722656 1031.089844 Z M 773.722656 1077.28125 "/>
</g>
</g>
</g>
<g clip-path="url(#clip-11)">
<g clip-path="url(#clip-12)">
<g clip-path="url(#clip-13)">
<path fill-rule="nonzero" fill="url(#linear-pattern-4)" d="M 302.300781 1711.480469 L 345.664062 1711.480469 L 345.664062 1653.449219 L 302.300781 1653.449219 Z M 302.300781 1711.480469 "/>
</g>
</g>
</g>
<g clip-path="url(#clip-14)">
<g clip-path="url(#clip-15)">
<g clip-path="url(#clip-16)">
<path fill-rule="nonzero" fill="url(#linear-pattern-5)" d="M 1095.191406 2060.171875 L 1138.550781 2060.171875 L 1138.550781 2002.140625 L 1095.191406 2002.140625 Z M 1095.191406 2060.171875 "/>
</g>
</g>
</g>
<g clip-path="url(#clip-17)">
<g clip-path="url(#clip-18)">
<g clip-path="url(#clip-19)">
<path fill-rule="nonzero" fill="url(#linear-pattern-6)" d="M 1950.179688 2002.140625 L 1993.539062 2002.140625 L 1993.539062 1944.109375 L 1950.179688 1944.109375 Z M 1950.179688 2002.140625 "/>
</g>
</g>
</g>
<g clip-path="url(#clip-20)">
<g clip-path="url(#clip-21)">
<g clip-path="url(#clip-22)">
<path fill-rule="nonzero" fill="url(#linear-pattern-7)" d="M 1116.871094 379.929688 L 1160.238281 379.929688 L 1160.238281 321.898438 L 1116.871094 321.898438 Z M 1116.871094 379.929688 "/>
</g>
</g>
</g>
<g clip-path="url(#clip-23)">
<g clip-path="url(#clip-24)">
<g clip-path="url(#clip-25)">
<path fill-rule="nonzero" fill="url(#linear-pattern-8)" d="M 2158.800781 1220.980469 L 2202.160156 1220.980469 L 2202.160156 1162.949219 L 2158.800781 1162.949219 Z M 2158.800781 1220.980469 "/>
</g>
</g>
</g>
<g clip-path="url(#clip-26)">
<g clip-path="url(#clip-27)">
<g clip-path="url(#clip-28)">
<path fill-rule="nonzero" fill="url(#linear-pattern-9)" d="M 1814.480469 723.078125 L 1857.851562 723.078125 L 1857.851562 665.050781 L 1814.480469 665.050781 Z M 1814.480469 723.078125 "/>
</g>
</g>
</g>
</svg>
