<?xml version="1.0" standalone="no"?>
<!DOCTYPE svg PUBLIC "-//W3C//DTD SVG 20010904//EN"
 "http://www.w3.org/TR/2001/REC-SVG-20010904/DTD/svg10.dtd">
<svg version="1.0" xmlns="http://www.w3.org/2000/svg"
 width="900.000000pt" height="381.000000pt" viewBox="0 0 900.000000 381.000000"
 preserveAspectRatio="xMidYMid meet">
<metadata>
Created by potrace 1.10, written by Peter Selinger 2001-2011
</metadata>
<g transform="translate(0.000000,381.000000) scale(0.100000,-0.100000)"
fill="#000000" stroke="none">
<path d="M5332 3338 c-5 -7 -15 -49 -21 -93 -23 -164 -40 -282 -51 -355 -6
-41 -15 -108 -20 -149 -6 -41 -15 -80 -21 -87 -9 -11 -63 -14 -261 -14 -190 0
-249 -3 -252 -12 -6 -21 -28 -179 -33 -240 l-5 -58 251 0 c214 0 252 -2 257
-15 4 -8 -1 -59 -10 -112 -8 -54 -22 -150 -31 -213 -9 -63 -23 -160 -30 -215
-8 -55 -21 -149 -30 -210 -29 -212 -46 -331 -60 -430 -36 -246 -45 -307 -60
-420 -9 -66 -17 -131 -19 -144 -8 -50 -5 -51 170 -51 l163 0 10 38 c5 20 12
62 16 92 3 30 12 98 20 150 17 116 39 277 60 430 8 63 22 161 30 218 21 143
41 287 60 422 9 63 22 158 30 210 7 52 16 119 20 148 3 29 10 64 15 77 l10 25
249 0 c137 0 252 4 255 8 14 22 47 268 39 289 -4 10 -56 13 -255 13 l-251 0 8
68 c5 37 9 90 9 117 l1 50 -122 3 c-68 1 -123 6 -123 10 0 11 45 53 111 104
143 110 180 143 187 167 3 14 7 62 7 106 l0 80 -156 3 c-117 2 -159 -1 -167
-10z"/>
<path d="M6383 2223 c-198 -182 -208 -194 -181 -221 13 -13 239 -16 270 -4 9
4 78 66 154 137 75 72 150 139 165 150 56 40 41 45 -131 45 l-160 0 -117 -107z"/>
<path d="M627 1881 c-13 -4 -86 -59 -102 -77 -5 -6 -47 -41 -92 -78 -46 -38
-83 -71 -83 -75 0 -4 -6 -48 -14 -97 -8 -49 -22 -143 -31 -209 -40 -295 -68
-496 -80 -566 -2 -17 4 -37 18 -55 61 -81 172 -193 202 -204 14 -5 232 -8 510
-6 l486 3 32 24 c17 13 74 59 127 103 l95 80 12 65 c6 37 12 81 12 99 l1 32
-167 0 -168 0 -29 -36 c-59 -75 -55 -74 -393 -74 l-301 0 -31 31 c-34 34 -37
56 -21 148 11 64 32 210 57 391 28 214 21 210 415 210 327 0 318 2 364 -71
l24 -39 153 0 c107 0 158 4 170 13 11 8 19 38 26 91 11 88 9 97 -28 135 -14
15 -50 55 -80 89 -30 34 -64 65 -75 67 -25 6 -991 12 -1009 6z"/>
<path d="M2293 1880 c-15 -4 -149 -105 -173 -130 -3 -3 -28 -24 -57 -48 -47
-39 -52 -47 -58 -95 -6 -49 -19 -142 -50 -357 -8 -52 -21 -151 -30 -220 -10
-69 -23 -159 -30 -200 -7 -41 -10 -80 -6 -86 3 -7 42 -51 86 -99 44 -47 82
-91 83 -96 2 -5 16 -16 31 -23 22 -12 115 -14 531 -11 278 1 510 3 517 4 6 1
18 7 25 14 7 7 51 44 98 82 122 98 160 138 160 171 0 15 4 53 10 83 9 56 25
164 55 381 9 63 22 160 30 215 30 214 34 186 -43 268 -37 40 -82 89 -99 110
l-33 37 -514 3 c-283 1 -523 0 -533 -3z m838 -319 c33 -33 35 -57 19 -174 -6
-40 -17 -117 -25 -172 -49 -350 -50 -350 -108 -385 -30 -19 -53 -20 -358 -20
-318 0 -327 1 -353 21 -38 30 -45 56 -36 125 20 151 32 236 45 319 8 50 17
117 21 150 4 33 12 71 19 85 15 28 52 65 75 73 8 3 163 6 343 6 l329 1 29 -29z"/>
<path d="M3771 1878 c-14 -5 -20 -22 -25 -75 -4 -37 -13 -108 -21 -158 -17
-113 -59 -411 -90 -640 -9 -66 -22 -163 -30 -215 -39 -269 -39 -262 -24 -271
8 -6 83 -9 167 -7 129 3 156 6 166 20 6 9 18 58 24 110 7 51 19 136 27 188 7
52 20 146 29 208 31 221 48 338 58 406 8 56 16 75 43 105 l33 36 314 5 c288 5
348 10 348 29 0 4 27 27 59 50 63 46 63 46 77 159 l7 52 -254 1 c-314 1 -298
3 -334 -30 -16 -15 -50 -43 -75 -62 -25 -18 -51 -40 -59 -47 -28 -27 -122 -95
-125 -91 -3 2 2 51 9 109 8 58 10 109 6 113 -10 10 -305 15 -330 5z"/>
<path d="M7572 1878 c-9 -3 -40 -26 -68 -50 -27 -23 -72 -61 -99 -83 -101 -81
-101 -82 -114 -180 -7 -50 -18 -123 -25 -163 -15 -88 -17 -83 112 -216 l93
-96 362 0 363 0 34 -29 c33 -27 35 -32 33 -86 -3 -68 -25 -110 -73 -142 -33
-23 -34 -23 -450 -23 l-418 0 -58 -47 c-101 -84 -100 -82 -108 -158 -5 -55 -4
-72 7 -80 17 -12 968 -18 1088 -7 l76 7 108 90 c147 122 153 129 160 183 3 26
12 89 20 140 20 122 19 149 -4 178 -27 35 -120 140 -158 180 l-33 34 -354 0
c-206 0 -365 4 -380 10 -14 5 -34 23 -45 40 -27 46 -12 123 35 170 l34 35 429
3 428 3 50 43 c28 23 62 51 77 62 20 15 29 34 40 94 8 41 11 78 8 82 -9 9
-1148 15 -1170 6z"/>
<path d="M5853 1852 c-17 -15 -75 -63 -128 -106 -53 -44 -100 -89 -105 -100
-4 -12 -11 -50 -14 -86 -4 -36 -11 -90 -17 -120 -5 -30 -13 -91 -19 -135 -5
-44 -14 -107 -19 -140 -6 -33 -17 -112 -26 -175 -9 -63 -20 -144 -26 -178 -11
-71 -15 -62 67 -152 28 -30 68 -75 90 -98 l40 -44 354 -5 c195 -3 457 -2 583
2 261 8 244 1 254 108 l6 63 -57 60 -57 59 -422 5 c-441 5 -454 7 -477 50 -17
32 -13 82 15 208 l5 22 441 0 c450 0 456 0 502 40 71 59 121 100 170 140 61
50 63 56 87 250 6 47 12 96 15 110 6 26 0 34 -145 188 l-59 62 -513 0 -513 0
-32 -28z m830 -273 c44 -24 58 -51 54 -105 -4 -61 -36 -110 -83 -130 -50 -21
-712 -21 -720 0 -9 24 24 177 43 199 39 43 63 46 381 47 210 0 310 -4 325 -11z"/>
</g>
</svg>
